HIERARCHY
ROOT Hips
{
	OFFSET -0.001795 -0.223333 0.028219
	CHANNELS 6 Xposition Yposition Zposition Zrotation Yrotation Xrotation 
	JOINT LeftUpLeg
	{
		OFFSET 0.069520 -0.091406 -0.006815
		CHANNELS 3 Zrotation Yrotation Xrotation
		JOINT LeftLeg
		{
			OFFSET 0.034277 -0.375199 -0.004496
			CHANNELS 3 Zrotation Yrotation Xrotation
			JOINT LeftFoot
			{
				OFFSET -0.013596 -0.397961 -0.043693
				CHANNELS 3 Zrotation Yrotation Xrotation
				JOINT LeftToe
				{
					OFFSET 0.026358 -0.055791 0.119288
					CHANNELS 3 Zrotation Yrotation Xrotation
					End Site
					{
						OFFSET 0.000000 0.000000 0.000000
					}
				}
			}
		}
	}
	JOINT RightUpLeg
	{
		OFFSET -0.067670 -0.090522 -0.004320
		CHANNELS 3 Zrotation Yrotation Xrotation
		JOINT RightLeg
		{
			OFFSET -0.038290 -0.382569 -0.008850
			CHANNELS 3 Zrotation Yrotation Xrotation
			JOINT RightFoot
			{
				OFFSET 0.015774 -0.398415 -0.042312
				CHANNELS 3 Zrotation Yrotation Xrotation
				JOINT RightToe
				{
					OFFSET -0.025372 -0.048144 0.123348
					CHANNELS 3 Zrotation Yrotation Xrotation
					End Site
					{
						OFFSET 0.000000 0.000000 0.000000
					}
				}
			}
		}
	}
	JOINT Spine
	{
		OFFSET -0.002533 0.108963 -0.026696
		CHANNELS 3 Zrotation Yrotation Xrotation
		JOINT Spine1
		{
			OFFSET 0.005487 0.135180 0.001092
			CHANNELS 3 Zrotation Yrotation Xrotation
			JOINT Spine2
			{
				OFFSET 0.001457 0.052922 0.025425
				CHANNELS 3 Zrotation Yrotation Xrotation
				JOINT Neck
				{
					OFFSET -0.002778 0.213870 -0.042857
					CHANNELS 3 Zrotation Yrotation Xrotation
					JOINT Head
					{
						OFFSET 0.005152 0.064970 0.051349
						CHANNELS 3 Zrotation Yrotation Xrotation
						End Site
						{
							OFFSET 0.000000 0.000000 0.000000
						}
					}
				}
				JOINT LeftShoulder
				{
					OFFSET 0.078845 0.121749 -0.034090
					CHANNELS 3 Zrotation Yrotation Xrotation
					JOINT LeftArm
					{
						OFFSET 0.090977 0.030469 -0.008868
						CHANNELS 3 Zrotation Yrotation Xrotation
						JOINT LeftForeArm
						{
							OFFSET 0.259612 -0.012772 -0.027456
							CHANNELS 3 Zrotation Yrotation Xrotation
							JOINT LeftHand
							{
								OFFSET 0.249234 0.008986 -0.001171
								CHANNELS 3 Zrotation Yrotation Xrotation
								End Site
								{
									OFFSET 0.000000 0.000000 0.000000
								}
							}
						}
					}
				}
				JOINT RightShoulder
				{
					OFFSET -0.081759 0.118833 -0.038615
					CHANNELS 3 Zrotation Yrotation Xrotation
					JOINT RightArm
					{
						OFFSET -0.096012 0.032551 -0.009143
						CHANNELS 3 Zrotation Yrotation Xrotation
						JOINT RightForeArm
						{
							OFFSET -0.253742 -0.013329 -0.021401
							CHANNELS 3 Zrotation Yrotation Xrotation
							JOINT RightHand
							{
								OFFSET -0.255298 0.007772 -0.005559
								CHANNELS 3 Zrotation Yrotation Xrotation
								End Site
								{
									OFFSET 0.000000 0.000000 0.000000
								}
							}
						}
					}
				}
			}
		}
	}
}
MOTION
Frames: 12
Frame Time: 0.050000
0.000000 0.983211 0.000000 4.662766 -12.947047 -9.894680 9.814122 4.411670 -58.291665 -15.087390 16.667984 77.793170 6.603017 14.341585 8.772439 0.000000 0.000000 0.000000 -1.178357 -0.562055 10.429028 0.602016 0.643736 12.691517 -0.643408 -2.803117 1.924091 0.000000 0.000000 0.000000 -9.342809 1.444283 21.027034 5.531625 -0.893990 -25.607015 3.377078 10.556638 30.857934 -2.573233 3.630056 -19.774940 0.000000 0.000000 0.000000 -24.317992 6.256483 -5.685978 -57.213203 0.828808 -10.050707 -5.092342 -27.673515 2.874333 0.000000 0.000000 0.000000 16.086526 3.442476 1.439683 61.799069 8.534501 -4.736725 2.648561 32.869884 2.793796 0.000000 0.000000 0.000000 
-0.001012 0.976736 0.017629 3.018015 -12.488168 -9.117595 9.189641 4.003243 -60.169796 -13.464915 14.122587 76.132713 5.300419 12.413694 10.203274 0.000000 0.000000 0.000000 0.407710 -0.825689 11.298741 -0.163740 0.757730 12.345256 0.271569 -1.621728 3.391984 0.000000 0.000000 0.000000 -9.276956 1.517718 22.187791 7.010170 -0.785305 -29.015468 5.120182 9.836380 33.351245 -2.540544 3.625757 -21.719352 0.000000 0.000000 0.000000 -24.866162 6.223980 -5.602717 -57.935277 1.756036 -10.881470 -7.853993 -27.591658 3.630252 0.000000 0.000000 0.000000 14.324760 1.956727 0.716066 62.258884 6.302154 -6.149443 5.180639 36.907217 4.139402 0.000000 0.000000 0.000000 
-0.000486 0.968228 0.037267 2.275159 -11.857806 -7.408814 8.671631 3.459095 -60.688029 -12.868309 13.120925 75.377248 3.547963 8.998463 7.223415 0.000000 0.000000 0.000000 -0.150246 -0.735672 10.438529 2.178941 0.408877 14.342669 -0.851542 -3.855434 3.005529 0.000000 0.000000 0.000000 -8.123931 1.082258 20.016696 5.553191 -0.808071 -26.181299 4.582256 9.001515 31.988414 -2.912077 3.730112 -20.691648 0.000000 0.000000 0.000000 -25.359230 4.615558 -4.598619 -57.043794 1.138324 -10.342765 -7.237725 -27.379029 3.413111 0.000000 0.000000 0.000000 17.851969 3.322586 1.289626 59.524029 6.916650 -5.680058 1.044209 35.670388 2.567595 0.000000 0.000000 0.000000 
0.001175 0.963397 0.059409 2.073349 -13.407264 -7.178457 8.195529 3.542840 -58.837866 -11.466054 12.599574 75.758995 4.358940 9.620248 3.716514 0.000000 0.000000 0.000000 -0.692862 -0.646429 10.747188 1.838108 0.680429 16.646461 -0.999671 -3.313912 1.454680 0.000000 0.000000 0.000000 -8.996430 1.390396 20.694092 7.080237 -0.966440 -27.741295 4.311414 10.442096 34.579987 -3.124290 4.055540 -21.721509 0.000000 0.000000 0.000000 -25.798591 4.452889 -4.629614 -57.231480 -0.706013 -9.803731 -7.549286 -27.109061 3.493488 0.000000 0.000000 0.000000 18.237599 4.106780 1.923783 59.163597 8.069267 -5.431447 1.095001 35.571277 2.680343 0.000000 0.000000 0.000000 
0.004361 0.967711 0.083696 1.831907 -14.633934 -5.434072 7.702532 3.273516 -55.648334 -10.079683 11.473590 72.732365 4.788692 9.347366 -1.029265 0.000000 0.000000 0.000000 -1.602900 -0.473452 10.146827 1.412571 0.861334 17.217483 -0.139389 -1.950911 2.397568 0.000000 0.000000 0.000000 -9.560190 1.462226 19.250527 6.816303 -1.138447 -25.637700 4.296856 11.688249 33.416910 -3.695236 4.481217 -24.989083 0.000000 0.000000 0.000000 -23.848168 4.877113 -4.848865 -57.640993 -1.714085 -9.193767 -8.237803 -27.652089 3.681975 0.000000 0.000000 0.000000 19.293442 3.824473 1.906466 59.031531 8.723980 -4.967534 0.590653 34.859167 2.493131 0.000000 0.000000 0.000000 
0.008461 0.992341 0.109784 1.625784 -15.190898 -3.900531 6.334395 2.249784 -52.202030 -8.762675 10.039897 68.459394 5.595514 10.566388 -3.287398 0.000000 0.000000 0.000000 -2.798064 -0.270722 9.227129 1.904012 0.734027 16.821841 2.304974 -1.350581 9.769744 0.000000 0.000000 0.000000 -10.303709 1.553105 18.089063 6.903749 -1.165623 -25.337095 4.599657 12.289065 34.131663 -2.668196 3.895387 -26.417153 0.000000 0.000000 0.000000 -23.334859 3.723738 -4.177132 -57.519841 -3.221563 -8.486838 -8.512015 -30.220916 4.127705 0.000000 0.000000 0.000000 19.006441 4.135101 2.163636 59.085829 7.894224 -5.365458 1.378452 34.883133 2.732963 0.000000 0.000000 0.000000 
0.013543 1.032164 0.136112 0.763342 -15.520427 -1.840095 5.164925 1.382308 -48.821436 -7.443666 8.467749 63.658127 5.655162 10.971415 -1.999590 0.000000 0.000000 0.000000 -3.549442 -0.094479 6.851160 1.711418 0.801847 16.935919 7.470811 0.244884 23.303855 0.000000 0.000000 0.000000 -10.558465 1.491663 16.377093 7.278576 -1.288923 -24.600582 4.886977 12.518494 34.051643 -2.856544 3.995165 -28.113220 0.000000 0.000000 0.000000 -22.387576 3.808555 -4.161264 -58.483584 -4.789567 -7.804308 -10.405782 -32.531711 5.057812 0.000000 0.000000 0.000000 16.856623 3.576791 1.834456 59.735667 7.586083 -5.415185 4.806834 33.415607 3.524525 0.000000 0.000000 0.000000 
0.018618 1.073989 0.160538 0.071184 -13.701450 0.170076 3.671950 -0.011045 -45.330886 -6.409230 6.423151 58.207207 5.597728 10.898895 -2.508243 0.000000 0.000000 0.000000 -3.482835 0.090094 1.777539 2.452241 0.872378 20.741640 7.733543 -2.693571 31.987924 0.000000 0.000000 0.000000 -10.625576 1.446439 15.970265 6.968172 -1.112004 -25.165672 5.447011 9.439912 33.524786 -2.814620 3.588565 -27.897101 0.000000 0.000000 0.000000 -22.419157 3.506799 -3.467248 -57.747910 -7.544499 -6.412931 -11.783303 -34.506631 5.994106 0.000000 0.000000 0.000000 15.134580 3.848399 1.540298 60.491595 5.862225 -6.183381 5.206329 32.267552 3.292836 0.000000 0.000000 0.000000 
0.022655 1.111098 0.182097 -0.990452 -12.333732 0.688447 3.482521 -0.583513 -39.743902 -5.804715 4.803168 50.749384 4.899644 9.762957 -1.230305 0.000000 0.000000 0.000000 -3.040725 0.403476 -3.690903 4.030544 1.026568 29.517649 4.476857 -6.978829 33.852208 0.000000 0.000000 0.000000 -9.990776 1.359728 16.808517 7.717779 -1.139557 -26.071849 4.581954 8.139833 33.821849 -3.073788 3.663131 -29.477556 0.000000 0.000000 0.000000 -22.975504 1.860378 -2.400452 -55.501876 -10.046514 -5.161975 -12.116815 -38.523148 6.904989 0.000000 0.000000 0.000000 14.637894 3.187633 1.123568 60.333588 5.330802 -6.452969 6.114148 32.805494 3.573272 0.000000 0.000000 0.000000 
0.025061 1.144989 0.201395 -1.308697 -11.292976 0.373375 3.414832 -0.871652 -33.557703 -5.928193 3.859451 43.034126 4.283151 8.748495 -0.270731 0.000000 0.000000 0.000000 -2.657374 0.786248 -8.480903 5.996625 1.125299 42.358601 1.219057 -9.383534 28.972979 0.000000 0.000000 0.000000 -9.217350 1.184587 17.070106 7.171673 -1.063200 -25.722839 4.172105 5.791748 33.058977 -1.768915 2.587638 -28.400768 0.000000 0.000000 0.000000 -23.095217 2.505173 -2.264600 -53.919639 -11.097605 -4.665760 -12.112418 -42.727659 7.999406 0.000000 0.000000 0.000000 14.245419 3.521216 0.942672 60.288558 5.501286 -6.352674 5.330541 31.981919 3.106334 0.000000 0.000000 0.000000 
0.025826 1.180384 0.218416 -1.852136 -9.226886 -0.103687 3.974730 -0.888457 -25.484018 -6.905631 2.851892 31.157856 3.366719 7.330380 1.532492 0.000000 0.000000 0.000000 -2.647153 1.129846 -12.383009 9.053314 -0.495682 51.247789 -2.345852 -12.996231 25.537297 0.000000 0.000000 0.000000 -8.248207 0.892657 16.707256 8.129219 -1.186468 -26.357593 2.521521 3.515390 33.669061 -1.135235 2.011034 -28.297424 0.000000 0.000000 0.000000 -23.240002 2.240311 -1.703851 -52.718805 -13.858404 -3.625303 -9.261040 -44.891473 7.480382 0.000000 0.000000 0.000000 14.548985 1.631872 -0.195833 61.185207 5.078095 -6.777796 5.504311 32.470717 3.194177 0.000000 0.000000 0.000000 
0.025097 1.209408 0.233565 -2.559929 -8.711299 -0.177125 5.169499 -0.557593 -18.213967 -8.096835 2.330320 20.243492 2.560166 6.706866 5.867730 0.000000 0.000000 0.000000 -2.246402 1.467290 -15.481545 11.145657 -1.866397 57.080876 -4.395936 -14.914965 19.622981 0.000000 0.000000 0.000000 -6.912022 0.594192 15.781707 8.963590 -1.293584 -26.884034 0.801063 2.236629 33.803458 0.071562 1.041763 -26.680874 0.000000 0.000000 0.000000 -22.595268 3.419320 -2.038030 -52.374892 -14.332609 -3.503718 -8.175851 -47.098568 7.677369 0.000000 0.000000 0.000000 15.527781 0.811539 -0.907657 61.218028 4.309613 -7.212171 4.971953 32.880531 3.022357 0.000000 0.000000 0.000000 
